<svg t="1643078572298" class="icon" viewBox="0 100 900 800" version="1.1" xmlns="http://www.w3.org/2000/svg" p-id="4279" width="32" height="32"><path d="M936.96 207.36v-46.592H237.568C154.624 160.768 87.04 228.352 87.04 311.296s67.584 151.04 150.528 151.04H936.96v-46.592c-46.592-11.776-81.408-53.76-81.408-104.448 0-50.176 34.816-92.16 81.408-103.936m-151.04 354.304H87.04v46.592c46.592 11.776 81.408 53.76 81.408 104.448 0 50.176-34.816 92.672-81.408 104.448v46.592h698.88c83.456 0 150.528-67.584 150.528-150.528 0.512-83.968-67.072-151.552-150.528-151.552" fill="#d81e06" p-id="4280"></path></svg>