<svg t="1643032254352" class="icon" viewBox="0 0 1134 1024" version="1.1" xmlns="http://www.w3.org/2000/svg" p-id="23200" data-spm-anchor-id="a313x.7781069.0.i11" width="32" height="32"><path d="M1115.761096 313.520965L898.09226 34.889804A90.153281 90.153281 0 0 0 826.593236 0.00043H308.305945a90.153281 90.153281 0 0 0-71.499025 34.889374L19.138085 313.520965A91.067179 91.067179 0 0 0 21.503466 427.919405l476.678084 563.928397a90.690868 90.690868 0 0 0 138.53608 0l476.83936-563.928397a91.067179 91.067179 0 0 0 2.204106-114.39844z m-43.006932 79.724101L595.64601 956.90467a36.932203 36.932203 0 0 1-56.446598 0L62.360052 393.191307a37.093479 37.093479 0 0 1-0.913898-46.608763l217.722594-278.631161A36.717168 36.717168 0 0 1 308.305945 53.759095h518.287291a36.717168 36.717168 0 0 1 29.137196 14.192288l217.722594 278.631161a37.093479 37.093479 0 0 1-0.967656 46.608763z" fill="#2c2c2c" p-id="23201" data-spm-anchor-id="a313x.7781069.0.i12" class=""></path><path d="M1072.48537 393.191307L595.64601 956.90467a36.932203 36.932203 0 0 1-56.446598 0L62.360052 393.191307a37.093479 37.093479 0 0 1-0.913898-46.608763l217.722594-278.631161A36.717168 36.717168 0 0 1 308.305945 53.759095h518.287291a36.717168 36.717168 0 0 1 29.137196 14.192288l217.722594 278.631161a37.093479 37.093479 0 0 1-0.967656 46.608763z" fill="#ffffff" p-id="23202" data-spm-anchor-id="a313x.7781069.0.i10" class=""></path><path d="M415.124412 224.012788h304.596597a26.879333 26.879333 0 1 0 0-53.758665H415.124412a26.879333 26.879333 0 0 0 0 53.758665zM790.252378 489.849387a26.879333 26.879333 0 0 0-37.631066 6.881109L569.411782 763.373476 399.641917 497.536876a26.879333 26.879333 0 0 0-45.318555 28.922162l191.542124 299.6508a26.879333 26.879333 0 0 0 2.795451 3.548072l0.752621 0.80638a26.879333 26.879333 0 0 0 3.709348 3.118002h0.376311a26.879333 26.879333 0 0 0 2.849209 1.666519l1.128932 0.537587 2.311622 0.913897 1.343967 0.430069 2.365381 0.537587h1.23645a26.879333 26.879333 0 0 0 3.655589 0.268793h3.386796l1.505242-0.268793 1.935312-0.43007 1.451484-0.430069 2.04283-0.752621 1.236449-0.537587c0.80638-0.376311 1.559001-0.80638 2.311622-1.290208l0.591346-0.322552a26.879333 26.879333 0 0 0 3.763106-2.956726l0.752622-0.698863a26.879333 26.879333 0 0 0 2.902968-3.440555l206.271998-299.650799a26.879333 26.879333 0 0 0-6.289764-37.308514z" fill="#2c2c2c" p-id="23203" data-spm-anchor-id="a313x.7781069.0.i9" class="selected"></path></svg>