<svg t="1643078632424" class="icon" viewBox="50 0 1000 940" version="1.1" xmlns="http://www.w3.org/2000/svg" p-id="7056" width="32" height="32"><path d="M1042.5657667 337.56029229L851.25506768 92.66259834A79.23675411 79.23675411 0 0 0 788.40565947 62.0003876H332.88494873a79.23675411 79.23675411 0 0 0-62.83690751 30.66221074l-191.24819913 244.88519414a79.99924658 79.99924658 0 0 0 2.07497989 100.53655312L499.77087734 933.74217881a79.71174932 79.71174932 0 0 0 121.76135332 0l419.09605401-495.64533252a79.99924658 79.99924658 0 0 0 1.93748203-100.536554z" fill="#d81e06" p-id="7057" data-spm-anchor-id="a313x.7781069.0.i2" class="selected"></path><path d="M426.77156533 258.88603379H694.49404414a23.62477763 23.62477763 0 1 0 0-47.24955527H426.77156533a23.62477763 23.62477763 0 0 0 0 47.24955527z m329.69689542 233.64779941a23.62477763 23.62477763 0 0 0-33.07468887 6.04994326L562.37028857 732.93156934 413.15919365 499.28376992a23.62477763 23.62477763 0 1 0-39.82462558 25.42476006l168.34841455 263.36002061a23.63727744 23.63727744 0 0 0 2.49997676 3.11247069l0.66249404 0.71249327a23.9122749 23.9122749 0 0 0 3.26246924 2.73747392h0.32499667a24.58726875 24.58726875 0 0 0 2.49997676 1.46248594l0.99999053 0.47499609 2.02498067 0.7999919 1.18748935 0.37499678 2.07497988 0.47499522h1.02499014a24.44977002 24.44977002 0 0 0 3.21247002 0.23749804H564.49526856l1.2499875-0.21249756 1.69998398-0.37499678 1.24998838-0.38749658 1.7999833-0.66249316 1.08749004-0.47499609a16.88734073 16.88734073 0 0 0 2.03748047-1.13748927l0.52499531-0.28749726a23.61227783 23.61227783 0 0 0 3.29996865-2.59997519l0.66249404-0.61249482a23.96227412 23.96227412 0 0 0 2.49997589-3.0249712l181.24829385-263.37251953a23.61227783 23.61227783 0 0 0-5.52494796-32.78719161z m-1e-8 0" fill="#d81e06" p-id="7058" data-spm-anchor-id="a313x.7781069.0.i3" class=""></path></svg>