<svg t="1643079340633" class="icon" viewBox="0 0 1024 1024" version="1.1" xmlns="http://www.w3.org/2000/svg" p-id="11178" width="32" height="32"><path d="M512 992C247.3 992 32 776.7 32 512S247.3 32 512 32s480 215.3 480 480-215.3 480-480 480z m0-896C282.6 96 96 282.6 96 512s186.6 416 416 416 416-186.6 416-416S741.4 96 512 96z" fill="#000000" p-id="11179" data-spm-anchor-id="a313x.7781069.0.i21" class="selected"></path><path d="M352 704c-8.3 0-16.5-3.3-22.6-9.4-8.6-8.6-11.6-21.3-7.7-32.8l80-240c3.2-9.5 10.7-17 20.2-20.2l240-80c11.5-3.9 24.2-0.9 32.8 7.7 8.6 8.6 11.6 21.3 7.7 32.8l-80 240c-3.2 9.5-10.7 17-20.2 20.2l-240 80c-3.4 1.2-6.8 1.7-10.2 1.7z m105.3-246.7l-54.7 164.1 164.1-54.7 54.7-164.1-164.1 54.7zM592 592h0.3-0.3z" fill="#000000" p-id="11180" data-spm-anchor-id="a313x.7781069.0.i22" class="selected"></path></svg>