<svg t="1643079241239" class="icon" style="stroke-width:1" stroke-width="1" viewBox="0 0 1024 1024" version="1.1" xmlns="http://www.w3.org/2000/svg" p-id="9773" width="32" height="32"><path d="M866.074124 930.699663c-71.016354-127.472066-207.215944-213.920337-363.277668-213.920337S210.668049 803.257131 139.651696 930.699663q-2.082201 3.721381-4.090566 7.472296c-20.674339 38.838222 7.472297 85.798506 51.479104 85.798506h7.295088a57.976753 57.976753 0 0 0 51.080384-30.37651 292.689568 292.689568 0 0 1 514.894407 0 57.976753 57.976753 0 0 0 51.065617 30.37651h7.309856c44.006807 0 72.197745-46.960284 51.479103-85.798506q-2.008364-3.706614-4.090565-7.472296z" fill="#000000" p-id="9774" data-spm-anchor-id="a313x.7781069.0.i14" class="selected"></path><path d="M404.903462 345.02518m-70.514262 0a70.514263 70.514263 0 1 0 141.028525 0 70.514263 70.514263 0 1 0-141.028525 0Z" fill="#000000" p-id="9775" data-spm-anchor-id="a313x.7781069.0.i13" class="selected"></path><path d="M630.150383 345.02518m-70.514262 0a70.514263 70.514263 0 1 0 141.028525 0 70.514263 70.514263 0 1 0-141.028525 0Z" fill="#000000" p-id="9776" data-spm-anchor-id="a313x.7781069.0.i12" class="selected"></path><path d="M502.899828 831.078884C273.783852 831.078884 87.375153 644.655418 87.375153 415.539442S273.783852 0 502.899828 0s415.55421 186.423466 415.55421 415.539442-186.423466 415.539442-415.55421 415.539442z m0-708.066568C341.610451 123.012316 210.387469 254.235298 210.387469 415.539442s131.222982 292.527126 292.512359 292.527127 292.541894-131.237749 292.541894-292.527127S664.203973 123.012316 502.899828 123.012316z" fill="#000000" p-id="9777" data-spm-anchor-id="a313x.7781069.0.i11" class="selected"></path></svg>